<?xml version="1.0" encoding="UTF-8"?>
<svg xmlns="http://www.w3.org/2000/svg" xmlns:xlink="http://www.w3.org/1999/xlink" xmlns:v="https://vecta.io/nano" viewBox="0 0 1920 480">
  <style><![CDATA[.D{mix-blend-mode:multiply}.C{isolation:isolate}.f{opacity:.5}.g{fill:#fff}.h{fill:#783bff}.i{fill:#ff4d4d}.j{fill:#ffa172}.k{fill:#2f3133}.l{fill:none}.m{fill:#f294ff}.n{fill:#e4d8ff}.o{stroke-miterlimit:10}]]></style>
  <defs>
    <linearGradient id="A" x1="0" y1="240" x2="1920" y2="240" xlink:href="#V">
      <stop offset="0" stop-color="#2f3133" stop-opacity="0"></stop>
      <stop offset="1" stop-color="#2f3133"></stop>
    </linearGradient>
    <clipPath id="B">
      <path d="M1920 240c0 66.27-26.86 126.27-70.29 169.71C1806.27 453.14 1746.27 480 1680 480H240C107.45 480 0 372.55 0 240c0-66.27 26.86-126.27 70.29-169.7C113.73 26.87 173.73 0 240 0h1440c132.55 0 240 107.46 240 240z" class="l"></path>
    </clipPath>
    <clipPath id="C">
      <path d="M237.37-57.31L-34.66,134.31c55.38,72.7,159.12,87.24,232.35,32.3,70.56-52.92,87.11-151.07,39.68-223.92Z" class="l"></path>
    </clipPath>
    <linearGradient id="D" x1="313.875" y1="-24.221" x2="-7.141" y2="216.541" xlink:href="#V">
      <stop offset="0" stop-color="#ff4d4d" stop-opacity="0"></stop>
      <stop offset="1" stop-color="#f7bfff"></stop>
    </linearGradient>
    <linearGradient id="E" x1="334.17" y1="268.65" x2="722.82" y2="268.65" xlink:href="#V">
      <stop offset="0" stop-color="#783bff" stop-opacity="0"></stop>
      <stop offset="1" stop-color="#783bff" stop-opacity=".2"></stop>
    </linearGradient>
    <clipPath id="F">
      <rect x="507.45" y="173.53" width="154.19" height="110.42" rx="9.52" class="h"></rect>
    </clipPath>
    <linearGradient id="G" x1="584.55" y1="116.64" x2="584.55" y2="285.28" xlink:href="#V">
      <stop offset=".37" stop-color="#f7bfff" stop-opacity="0"></stop>
      <stop offset="1" stop-color="#f7bfff"></stop>
    </linearGradient>
    <linearGradient id="H" x1="1571.5" y1="122.01" x2="1260.24" y2="122.01" xlink:href="#V">
      <stop offset="0" stop-color="#ffa172" stop-opacity="0"></stop>
      <stop offset="1" stop-color="#ffa172"></stop>
    </linearGradient>
    <clipPath id="I">
      <rect x="1190.13" y="266.76" width="374.38" height="125.01" rx="13.44" class="l"></rect>
    </clipPath>
    <linearGradient id="J" x1="679.31" y1="85.74" x2="1227.65" y2="85.74" xlink:href="#V">
      <stop offset="0" stop-color="#f7bfff" stop-opacity="0"></stop>
      <stop offset=".24" stop-color="#f7bfff" stop-opacity="0"></stop>
      <stop offset=".38" stop-color="#f7bfff" stop-opacity=".04"></stop>
      <stop offset=".49" stop-color="#f7bfff" stop-opacity=".1"></stop>
      <stop offset=".58" stop-color="#f7bfff" stop-opacity=".17"></stop>
      <stop offset=".67" stop-color="#f7bfff" stop-opacity=".28"></stop>
      <stop offset=".75" stop-color="#f7bfff" stop-opacity=".4"></stop>
      <stop offset=".83" stop-color="#f7bfff" stop-opacity=".55"></stop>
      <stop offset=".9" stop-color="#f7bfff" stop-opacity=".72"></stop>
      <stop offset=".97" stop-color="#f7bfff" stop-opacity=".91"></stop>
      <stop offset="1" stop-color="#f7bfff"></stop>
    </linearGradient>
    <clipPath id="K">
      <path d="M1209.61 414.42H697.47a18.09 18.09 0 0 1-18.09-18.16l1.05-290.36 547.28.07v290.35c0 9.99-8.1 18.09-18.09 18.09z" class="l"></path>
    </clipPath>
    <path id="L" d="M1920 240c0 66.27-26.86 126.27-70.29 169.71C1806.27 453.14 1746.27 480 1680 480H240C107.45 480 0 372.55 0 240c0-66.27 26.86-126.27 70.29-169.7C113.73 26.87 173.73 0 240 0h1440c132.55 0 240 107.46 240 240z"></path>
    <path id="M" d="M861.14 109.95c-3.55 28.22 29.07 53.82 46.73 27.37s-8.79-44.1-22.9-45.88c-14.11-1.77-23.83 18.51-23.83 18.51z"></path>
    <path id="N" d="M237.37-57.31L-34.66,134.31c55.38,72.7,159.12,87.24,232.35,32.3,70.56-52.92,87.11-151.07,39.68-223.92Z"></path>
    <path id="O" d="M1696.34 301.18a9.34 9.34 0 0 1 8.82-9.82v-.25a9.34 9.34 0 0 1-9.83-8.82h-.25a9.34 9.34 0 0 1-8.82 9.83v.25a9.34 9.34 0 0 1 9.83 8.82h.25z"></path>
    <path id="P" d="M1095.56 45.15a6.07 6.07 0 0 1 6.4 5.71h.16c-.19-3.35 2.37-6.22 5.71-6.41v-.16c-3.35.19-6.22-2.37-6.41-5.71h-.16c.19 3.35-2.37 6.22-5.71 6.41v.16z"></path>
    <path id="Q" d="M923.91 140.13h-18.39a.98.98 0 0 1 0-1.96h18.39a.98.98 0 0 1 0 1.96z"></path>
    <path id="R" d="M1191.79,104.85h366.81c15.03,0,27.23,12.2,27.23,27.23v7.09h-421.27v-7.09c0-15.03,12.2-27.23,27.23-27.23Z"></path>
    <path id="S" d="M1564.27 155.95h-17.59a.94.94 0 0 1 0-1.88h17.59a.94.94 0 1 1 0 1.88z"></path>
    <path id="T" d="M704.57 65.59h497.84c13.94 0 25.25 11.31 25.25 25.25v15.05H679.31V90.84c0-13.94 11.31-25.25 25.25-25.25z"></path>
    <path id="U" d="M789.32 270.46c0 2.85.51 5.47 1.43 7.8h-16.22c-.59-2.47-.9-5.08-.9-7.8 0-5.06 1.08-9.73 3.02-13.86h18.04c-3.31 3.4-5.37 8.2-5.37 13.86z"></path>
    <linearGradient id="V" gradientUnits="userSpaceOnUse"></linearGradient>
  </defs>
  <g class="C">
    <use xlink:href="#L" class="h"></use>
    <use xlink:href="#L" class="D" fill="url(#A)"></use>
    <g opacity=".32">
      <g clip-path="url(#B)">
        <g stroke="#ff4d4d" stroke-width="2" class="l o">
          <path d="M952.52 637.43s-22.9-45.88 22.13-119.05 14.18-112.88-17.58-88.21c-31.77 24.67 39.63 83.81 96.15-23.75s4.54-207.26-76.57-246.12c-81.12-38.86-157.06 109.26-42.41 109.34 58.21-7.02 116.77-66.86 45.23-156.91-71.53-90.06-149.1-157.14-81.1-299.09l46.8-87.28M423.73 507.95s-22.9-45.88 22.13-119.05 14.18-112.88-17.58-88.21c-31.77 24.67 39.63 83.81 96.15-23.75s4.54-207.26-76.57-246.12C366.74-8.04 290.8 140.08 405.45 140.16c58.21-7.02 116.77-66.86 45.23-156.91-71.53-90.06-149.1-157.14-81.1-299.09l46.8-87.28M871.4 598.57s90.06-146.35-41.26-299.01c-131.31-152.67-208.66-60.42-219.6-20.43-13.26 48.5 76.65 131.46 134.93 9.79 32.69-89.06-68.7-137.63-42.18-234.63S879.71 19.13 812.63 96.7C739.39 166.32 668.92-.95 562.21-7.19m930.38 547.13s144.27 10.32 207.17-147.07c62.91-157.39-36.03-179.26-70.14-171.87-41.36 8.96-68.34 108.33 45.16 104.54 79.19-10.23 76.03-104.8 158.75-122.72s94.85 118.02 10.86 98.11c-80.46-27.61-10.1-205.26-46.93-287.35m-735.53 551.6s-6.09-122.6 62.76-214.28 73.32-184.28 23.97-247.82c-49.35-63.53-62.61-15.03-31.77 24.67 30.84 39.71-16.81 76.72-49.42 51.12-32.62-25.6-29.07-53.82-13.19-66.16s33.54-38.78-22.9-45.88c-56.44-7.09-39.63-83.81 4.47-92.6s67.01 37.09 126.14-34.31c59.14-71.4 31.84-139.33 31.84-139.33m-73.26 719.04s-26.8-93.78 58.79-147.53c85.59-53.74 102.39-130.46 73.32-184.28s-101.32-163.23 78.64-226.61M190.62 506.57s-26.8-93.78 58.79-147.53C335 305.3 351.8 228.58 322.73 174.76S221.41 11.53 401.37-51.85m988.19 549.84s-10.47-96.97 83.01-135.38 123.08-111.16 103.59-169.13c-19.5-57.98-72.09-178.08 116.02-209.95m-351.15 501.29s46.5-97.07 12.79-192.78 9.96-170.27 80.33-184.29c70.37-14.03 63.24 133.73-43.67 74.55-106.91-59.17-57.58-178.75 57.82-187.12M-34.66 284.9s58.16 31.23 124.31 18.04c66.16-13.19 102.32-15.81 89.06 32.69s-45.88 22.9-58.21 7.02c-12.34-15.88-25.52-82.04 52.97-79.34s81.12 38.86 160.53-22.83m310.16-114.8S608 128.3 626.5 152.13c18.51 23.83 59.99-21.13 17.66-26.45zM261.1 417.14s-36.16 2.62-17.66 26.45c18.51 23.83 59.99-21.13 17.66-26.45z"></path>
          <use xlink:href="#M"></use>
          <path d="M1632.89 85.01c-7.19 57.23 58.95 109.14 94.76 55.51s-18.3-86.72-46.44-93.04c-38.1-8.56-48.32 37.53-48.32 37.53zM521.99 395.36c-3.55 28.22 29.07 53.82 46.73 27.37s-8.79-44.1-22.9-45.88c-14.11-1.77-23.83 18.51-23.83 18.51zm621.35-363.6c10.37 16.33 32.75.03 18.15-14.1-14.6-14.12-28.93-2.88-18.15 14.1zm643.77 290.64c6.17 7.94 32.75.03 18.15-14.1-14.6-14.12-30.49-1.79-18.15 14.1zm-35.93 86.45c16.2 20.85 85.99.07 47.65-37.01-38.34-37.09-80.04-4.69-47.65 37.01z"></path>
        </g>
        <use xlink:href="#N" class="h"></use>
        <g opacity=".6" class="l o">
          <g clip-path="url(#C)">
            <path d="M-21.78 52.15c20.32-31.96 52.1-56.47 88.18-68 9.24-2.95 20.27-4.79 27.9 1.21 7.58 5.95 8.45 16.97 8.11 26.6-2.13 60.32-27.93 119.5-70.68 162.11-6.88 6.86-16.04 13.79-25.39 11.17-7.4-2.07-12.1-9.83-12.83-17.48s1.71-15.23 4.42-22.42C16.67 95.54 49.94 51.32 92.57 19.5c16.53-12.33 35.3-23.12 55.87-24.42 20.58-1.3 43.04 9.31 49.93 28.74 4.63 13.05 1.73 27.44-1.52 40.9a856.13 856.13 0 0 1-34.93 110.71c-7.78 19.83-21.31 42.75-42.59 41.78-17.39-.79-29.92-19.15-30.1-36.56s8.75-33.54 18.48-47.97c34.9-51.79 83.85-94.01 140.2-120.94C261.6 5.2 279.4.07 290.67 10.23c9.25 8.34 8.99 22.74 7.23 35.07a296.65 296.65 0 0 1-32.94 99.55c-8.34 15.35-24.17 32.12-40.28 25.37-11.47-4.8-15.39-20.11-11.43-31.9 3.96-11.78 13.62-20.65 23.27-28.49 45.4-36.86 99.36-63.11 156.39-76.08" stroke="#fff" stroke-width="5.92"></path>
          </g>
        </g>
        <use xlink:href="#N" opacity=".6" fill="url(#D)"></use>
      </g>
    </g>
    <g class="g">
      <use xlink:href="#O"></use>
      <circle cx="1701.78" cy="103.74" r="2.64"></circle>
      <circle cx="1717.25" cy="210.94" r="3.9"></circle>
      <circle cx="1722.83" cy="400.07" r="1.68"></circle>
      <circle cx="1772.63" cy="388.81" r="4.29"></circle>
      <use xlink:href="#O" x="-109.75" y="-268.76"></use>
      <use xlink:href="#P"></use>
      <use xlink:href="#P" x="-238.66" y="-11.13"></use>
      <path d="M1880.37 164.7c-.13 7.45-6.27 13.38-13.72 13.25v.36a13.5 13.5 0 0 1 13.25 13.72h.36a13.5 13.5 0 0 1 13.72-13.25v-.36a13.5 13.5 0 0 1-13.25-13.72h-.36z"></path>
      <circle cx="1850.6" cy="123.82" r="2.64"></circle>
    </g>
    <circle cx="1777.48" cy="147.7" r="3.9" fill="#ffbc9a"></circle>
    <circle cx="1352.08" cy="50.77" r="4.55" class="m"></circle>
    <g class="g">
      <circle cx="1194.1" cy="41.17" r="1.68"></circle>
      <circle cx="1447.12" cy="41.43" r="1.68"></circle>
      <circle cx="1880.32" cy="280.51" r="1.68"></circle>
      <circle cx="1496.92" cy="61.1" r="4.29"></circle>
      <use xlink:href="#O" x="-281.43" y="131.14"></use>
      <use xlink:href="#P" x="-171.69" y="399.9"></use>
    </g>
    <circle cx="1180.4" cy="450.66" r="4.55" class="m"></circle>
    <g class="g">
      <circle cx="1022.41" cy="441.07" r="1.68"></circle>
      <circle cx="1275.43" cy="441.32" r="1.68"></circle>
      <circle cx="1325.23" cy="461" r="4.29"></circle>
      <path d="M265.5 148.81a9.33 9.33 0 0 0-9.77-8.87v-.25a9.33 9.33 0 0 0 8.86-9.77h.25a9.33 9.33 0 0 0 9.77 8.86v.25a9.33 9.33 0 0 0-8.86 9.77h-.25zm206.04 297.81c-7.45 0-13.49 6.04-13.49 13.49h-.36c0-7.45-6.04-13.49-13.49-13.49v-.36c7.45 0 13.49-6.04 13.49-13.49h.36c0 7.45 6.04 13.49 13.49 13.49v.36z"></path>
      <circle cx="603.99" cy="422.88" r="2.64"></circle>
      <circle cx="316.13" cy="87.65" r="2.64"></circle>
    </g>
    <g class="h">
      <circle cx="769.77" cy="445.89" r="7.41"></circle>
      <circle cx="1258.46" cy="50.86" r="7.41"></circle>
    </g>
    <g class="g">
      <circle cx="59.82" cy="234.02" r="3.9"></circle>
      <circle cx="477.32" cy="100.37" r="3.9"></circle>
    </g>
    <circle cx="182.26" cy="239.37" r="3.9" class="j"></circle>
    <g class="g">
      <circle cx="628.54" cy="60.48" r="3.9"></circle>
      <circle cx="215.95" cy="241.05" r="1.68"></circle>
      <circle cx="146.91" cy="390.62" r="3.9"></circle>
      <circle cx="108.45" cy="379.48" r="1.68"></circle>
      <circle cx="254.04" cy="190.31" r="1.68"></circle>
    </g>
    <g fill="#e0d4ff">
      <circle cx="252.36" cy="306.33" r="4.29"></circle>
      <circle cx="570.99" cy="24.24" r="4.29"></circle>
    </g>
    <circle cx="769.77" cy="38.4" r="4.29" class="g"></circle>
    <circle cx="162.2" cy="337.47" r="10.44" class="i"></circle>
    <circle cx="1842.37" cy="358.71" r="10.44" class="m"></circle>
    <circle cx="266.79" cy="403.43" r="5.3" class="i"></circle>
    <g class="h">
      <circle cx="64.05" cy="337.47" r="5.3"></circle>
      <circle cx="1781.39" cy="268.84" r="5.3"></circle>
      <circle cx="1616.17" cy="425.77" r="5.3"></circle>
    </g>
    <circle cx="1719.18" cy="35.02" r="5.3" class="i"></circle>
    <circle cx="309.22" cy="35.75" r="2.65" fill="#c9b1ff"></circle>
    <circle cx="423.63" cy="55.67" r="4.81" class="j"></circle>
    <circle cx="1501.21" cy="431.07" r="3.62" class="i"></circle>
    <path d="M334.17 139.08h603.19v259.13H348.04a13.89 13.89 0 0 1-13.88-13.88V139.08h0z" fill="#c8b0ff"></path>
    <path d="M334.17 139.08h388.65v259.13H334.17z" fill="url(#E)"></path>
    <path d="M356.21,104.72h344.57c12.16,0,22.04,9.88,22.04,22.04v12.32H334.17v-12.32c0-12.16,9.88-22.04,22.04-22.04Z" class="h"></path>
    <g class="n">
      <circle cx="357.19" cy="122.46" r="3.74"></circle>
      <circle cx="371.95" cy="122.46" r="3.74"></circle>
      <circle cx="386.7" cy="122.46" r="3.74"></circle>
    </g>
    <g class="g">
      <path d="M750.42 130.7a8.8 8.8 0 0 0 0-17.6H520.83a8.8 8.8 0 0 0 0 17.6h229.59z"></path>
      <rect x="352.8" y="173.53" width="135.24" height="209.53" rx="12.28" class="f"></rect>
    </g>
    <path d="M507.45 304.59h247.7m-247.7 15.04h247.7m-247.7 15.04h247.7m-247.7 15.05h247.7m-247.7 17.53h247.7" stroke="#f9ccff" stroke-linecap="round" stroke-linejoin="round" stroke-width="1.47" class="l"></path>
    <rect x="507.45" y="173.53" width="154.19" height="110.42" rx="9.52" class="h"></rect>
    <g clip-path="url(#F)" fill="#ffbc9a">
      <path d="M546.56 290.14l64.95-102.59 67.12 103.64-132.07-1.05z"></path>
      <path d="M494.06 289.72l44.56-62.46 46.06 63.18-90.62-.72z"></path>
      <circle cx="564.02" cy="195.31" r="10.72"></circle>
    </g>
    <path d="M475.76,383.06h-24.27l36.54-197.25v184.97c0,6.78-5.5,12.28-12.28,12.28Z" class="m"></path>
    <path d="M681.73 398.21l-33.27-293.49h33.19l.08 293.49z" class="k"></path>
    <rect x="507.45" y="173.53" width="154.19" height="110.42" rx="9.52" fill="url(#G)"></rect>
    <g class="g">
      <use xlink:href="#Q"></use>
      <use xlink:href="#Q" y="4.94"></use>
      <use xlink:href="#Q" y="9.87"></use>
    </g>
    <path d="M1164.56,139.17h421.27v246.3c0,7.1-5.77,12.87-12.87,12.87h-408.4V139.17h0Z" class="h"></path>
    <path d="M1164.56,139.17h421.27v246.3c0,7.1-5.77,12.87-12.87,12.87h-408.4V139.17h0Z" class="i"></path>
    <use xlink:href="#R" class="h"></use>
    <use xlink:href="#R" fill="url(#H)"></use>
    <g class="n">
      <circle cx="1184.17" cy="105.23" r="3.93"></circle>
      <circle cx="1199.7" cy="105.23" r="3.93"></circle>
      <circle cx="1215.23" cy="105.23" r="3.93"></circle>
    </g>
    <g class="g">
      <path d="M1444.48,130.8c4.86,0,8.79-3.94,8.79-8.79s-3.94-8.79-8.79-8.79h-229.39c-4.86,0-8.79,3.94-8.79,8.79s3.94,8.79,8.79,8.79h229.39Z"></path>
      <use xlink:href="#S"></use>
      <use xlink:href="#S" y="4.72"></use>
      <use xlink:href="#S" y="9.43"></use>
      <rect x="1233.88" y="160.67" width="281.29" height="96.06" rx="10.21" class="f"></rect>
      <rect x="1190.13" y="266.76" width="374.38" height="125.01" rx="13.44" class="f"></rect>
    </g>
    <g clip-path="url(#I)" class="g">
      <path d="M1335.18 395.11l80.25-91.91 82.94 92.85-163.19-.94z" class="f"></path>
      <path d="M1270.31 394.74l55.06-55.96 56.91 56.6-111.97-.64z" class="f"></path>
      <circle cx="1294.55" cy="303.2" r="14.77" class="f"></circle>
    </g>
    <text fill="#ece5ff" font-family="MuseoSans-900,Museo Sans" font-size="76.05">
      <tspan x="1258.01" y="237.7">HOME</tspan>
    </text>
    <path d="M1225.96 398.3l39.13-293.45-40.11-.21.98 293.66z" class="k"></path>
    <path d="M1227.35,105.89H679.31V396.32c0,9.99,8.1,18.09,18.09,18.09h512.18c10,0,18.11-8.11,18.09-18.12l-.34-290.41Z" class="j"></path>
    <path d="M1227.71,105.96l-547.39-.07V396.32c0,9.99,8.1,18.09,18.09,18.09h511.2c9.99,0,18.09-8.1,18.09-18.09V105.96Z" class="f g"></path>
    <use xlink:href="#T" class="h"></use>
    <use xlink:href="#T" fill="url(#J)"></use>
    <path d="M1093.02 96.07a10.32 10.32 0 0 0 0-20.64H823.69a10.32 10.32 0 0 0 0 20.64h269.33z" class="g"></path>
    <g clip-path="url(#K)">
      <path d="M889.07,418.86c0-142.11-117.82-257.32-263.17-257.32V418.86h263.17Z" class="j"></path>
      <g class="g">
        <circle cx="881.57" cy="369.89" r="24.08" class="f"></circle>
        <path d="M854.63,446.18c20.6-132.07-72.2-256.21-207.28-277.27l-37.29,239.13,244.57,38.14Z" class="f"></path>
      </g>
      <path d="M1003.56-14.16c0 142.11 117.82 257.32 263.17 257.32V-14.16h-263.17z" class="j"></path>
      <g class="g">
        <path d="M1051.3-37.75c-28.53,128.72,55.06,256.72,186.7,285.9l51.66-233.06-238.36-52.84Z" class="f"></path>
        <path d="M708.88 439.54l-2.96-.97c.28-.82 25.56-80.53-115.18-157.74-6.84-3.49-10.83-5.76-10.94-5.82l1.52-2.67 10.19 5.42c31.91 16.29 131.46 61.84 186.78 27.78 24.98-15.38 38-45.15 38.87-88.68-78.89-48.75-96.48-94.74-91.19-119.36 3.19-14.85 14.56-23.88 29.01-23 27.35 1.67 57.83 37.35 64.27 113.31.82 9.68 1.17 18.84 1.06 27.48 30.94 18.89 71.3 38.24 123.41 56.96l-1.08 2.86c-51.39-18.46-91.47-37.61-122.41-56.38-1.23 43.65-14.72 73.65-40.29 89.39-19.6 12.07-57.37 21.73-126-.78-12.77-4.19-24.78-8.9-35.25-13.41 35.28 22.88 70.33 53.8 85.27 92.1 12.26 31.42 5.21 52.61 4.91 53.49zM753.1 77.5c-11.99 0-21.35 7.94-24.08 20.63-5.09 23.69 12.06 67.9 88.18 115.26.04-7.99-.31-16.43-1.07-25.32-6.28-74.15-35.34-108.93-61.35-110.52-.57-.04-1.13-.05-1.69-.05z"></path>
      </g>
      <path d="M743.43 256.6c-1.99.95-4.34 1.45-7.02 1.45h-14.72v-1.45h-1.5c-7.66 0-13.87-6.21-13.87-13.87v-27.62h-.33v86.37h.33v-9.35c0-7.66 6.21-13.87 13.87-13.87h1.5v-6.58h17.63c11.39 0 20.38-5.79 24.69-15.08h-20.58z" class="i"></path>
      <path d="M833.51,292.13v.13c3.17-3.4,5.57-7.51,6.97-12.16-4.16,2.39-6.97,6.88-6.97,12.03Z" class="k"></path>
      <path d="M841.87 270.46c0 3.41-.48 6.64-1.39 9.64-4.16 2.39-6.97 6.88-6.97 12.03v.13c-3.82 4.11-8.76 7.2-14.37 8.96v-9.09c0-1.93-.39-3.76-1.1-5.43 4.88-3.3 8.14-9.04 8.14-16.24 0-8.51-4.66-15.07-11.15-17.87a13.85 13.85 0 0 0 4.11-9.86v-3c13.29 4.22 22.73 15.78 22.73 30.73z" class="h"></path>
      <use xlink:href="#U" class="j"></use>
      <g class="i">
        <path d="M878.5 256.6c-3.2 2.09-5.92 5.42-7.44 10.21-.97 3.04-1.33 6.45-1.33 10.1v1.35h-15.45V256.6h24.22zm41.77 21.66h-15.51V256.6h15.45v20.19l.06 1.47z"></path>
      </g>
      <path d="M943.44 240.41v10.8a13.83 13.83 0 0 0 2.89-8.48v-2.32h-2.89z" class="k"></path>
      <g class="h">
        <path d="M966.55 254.05v47.43H951.1V252.7h-7.66v-1.49a13.83 13.83 0 0 0 2.89-8.48v-2.32h4.77v-2.79c0-10.28 4.27-16.04 9.6-19.22v24.33c0 4.67 2.31 8.81 5.85 11.32zm87.22 16.41c0 2.72-.31 5.33-.89 7.8h-16.23c.92-2.33 1.43-4.95 1.43-7.8 0-5.66-2.06-10.46-5.36-13.86h18.03c1.94 4.13 3.02 8.8 3.02 13.86z"></path>
      </g>
      <path d="M1001.22 270.46c0 2.85.51 5.47 1.43 7.8h-16.22c-.59-2.47-.9-5.08-.9-7.8 0-5.06 1.08-9.73 3.02-13.86h18.04c-3.31 3.4-5.37 8.2-5.37 13.86z" class="j"></path>
      <path d="M1088.43 288.29c-.35 1.22-.54 2.51-.54 3.84v9.77l1.4-.18v-13.5l-.86.07z" class="k"></path>
      <path d="M1073.52,292.13v7.79c-4.65-2.43-8.2-7.49-8.2-17.78v-2.67c4.83,2.17,8.2,7.02,8.2,12.66Z" class="i"></path>
      <path d="M1088.43 288.29c-.35 1.22-.54 2.51-.54 3.84v9.77l-3.47.19c-3.58 0-7.53-.39-10.9-2.17v-7.79c0-5.64-3.37-10.49-8.2-12.66v-24.08c4.83-2.17 8.2-7.02 8.2-12.66v-27.62h7.13v64.72c0 6.81 2.31 8.51 6.33 8.51.54 0 1.04-.02 1.45-.05z" class="h"></path>
      <g class="j">
        <path d="M1116.17 256.6v21.66h-14.41l-1.04.04v-21.74l1.04.04h14.41zm80.65 13.86c0 3.76-.59 7.29-1.68 10.55-2.31-1.73-5.19-2.75-8.3-2.75h-7.14c.92-2.33 1.43-4.95 1.43-7.8 0-5.66-2.06-10.46-5.36-13.86h11.07a13.79 13.79 0 0 0 6.21-1.47c2.41 4.48 3.77 9.66 3.77 15.33z"></path>
      </g>
      <path d="M1144.27 270.46c0 2.85.51 5.47 1.43 7.8h-16.22c-.59-2.47-.9-5.08-.9-7.8 0-5.06 1.08-9.73 3.02-13.86h18.04c-3.31 3.4-5.37 8.2-5.37 13.86z" class="h"></path>
      <path d="M766.82,243.21c0,4.97-.99,9.49-2.81,13.39h-20.58c4.78-2.25,7.45-7.03,7.45-13.39,0-8.88-5.35-14.6-14.23-14.6h-14.96v27.99h-1.5c-7.66,0-13.87-6.21-13.87-13.87v-27.62h33c16.18,0,27.5,11.31,27.5,28.1Z" class="j"></path>
      <path d="M750.88,243.21c0,6.36-2.67,11.14-7.45,13.39h-21.74v-27.99h14.96c8.88,0,14.23,5.72,14.23,14.6Z" class="f g"></path>
      <path d="M819.14,239.73v3c0,3.85-1.57,7.34-4.11,9.86-2.23-.95-4.68-1.47-7.22-1.47-5.1,0-9.76,2.02-13.12,5.48h-18.04c5.35-11.36,17.21-18.62,31.04-18.62,4.02,0,7.87,.61,11.45,1.75Z" class="i"></path>
      <path d="M807.81 251.12c2.54 0 4.99.52 7.22 1.47a13.83 13.83 0 0 1-9.76 4.01h-10.58c3.36-3.46 8.02-5.48 13.12-5.48z" class="f g"></path>
      <path d="M891.62 238.83v15.21s-1.58-.25-3.65-.25c-3.16 0-6.52.87-9.47 2.81h-24.22v-17.16h14.84v10.71c0 2.31-.25 4.37-.25 4.37h.25c2.8-8.88 10.22-15.93 19.7-15.93 1.46 0 2.8.24 2.8.24z" class="h"></path>
      <path d="M934.32 240.41v12.29h-14.11v3.9h-15.45v-3.9h-8.03v-12.29h8.39v-17.88h15.09v17.88h14.11z" class="j"></path>
      <path d="M966.55 237.98v2.43h13.26v12.29h-13.26v1.35c-3.54-2.51-5.85-6.65-5.85-11.32V218.4c5.21-3.12 11.44-3.77 15.7-3.77 3.17 0 5.24.36 5.24.36v13.14s-1.34-.25-3.17-.25c-4.38 0-11.92 1.1-11.92 10.1z" class="i"></path>
      <path d="M1050.75,256.6h-18.03c-3.35-3.46-7.98-5.48-13.01-5.48s-9.76,2.02-13.12,5.48h-18.04c5.35-11.36,17.21-18.62,31.04-18.62s25.8,7.26,31.16,18.62Z" class="k"></path>
      <path d="M1019.71,251.12c5.03,0,9.66,2.02,13.01,5.48h-26.13c3.36-3.46,8.02-5.48,13.12-5.48Z" class="f g"></path>
      <path d="M1073.52,215.11v27.62c0,5.64-3.37,10.49-8.2,12.66v-40.28h8.2Z" class="j"></path>
      <path d="M1116.17,239.44v17.16h-14.41c-.35,0-.7,0-1.04-.04v-17.12h15.45Z" class="h"></path>
      <g class="i">
        <path d="M1100.72 215.11h15.33v13.75h-15.33zm92.33 40.02a13.79 13.79 0 0 1-6.21 1.47h-11.07c-3.35-3.46-7.98-5.48-13.01-5.48s-9.76 2.02-13.12 5.48h-18.04c5.35-11.36 17.21-18.62 31.04-18.62s24.76 6.64 30.41 17.15z"></path>
      </g>
      <path d="M721.69,278.26v23.22h-15.37v-9.35c0-7.66,6.21-13.87,13.87-13.87h1.5Z" class="h"></path>
      <path d="M819.14 292.13v9.09c-3.54 1.12-7.36 1.72-11.33 1.72-16.27 0-29.77-9.84-33.28-24.68h16.22c2.81 7.12 9.45 11.54 17.06 11.54 3.75 0 7.29-1.11 10.23-3.1.71 1.67 1.1 3.5 1.1 5.43z" class="i"></path>
      <path d="M790.75,278.26h14.52c5.73,0,10.65,3.48,12.77,8.44-2.94,1.99-6.48,3.1-10.23,3.1-7.61,0-14.25-4.42-17.06-11.54Z" class="f g"></path>
      <path d="M854.28 278.26h15.45v23.22h-15.45z" class="k"></path>
      <path d="M935.29 288.22v13.5s-1.82.37-4.74.37c-8.64 0-25.79-2.56-25.79-23.36v-.47h15.51c.74 8.88 8.17 10.2 12.22 10.2 1.71 0 2.8-.24 2.8-.24z" class="h"></path>
      <path d="M1052.88,278.26c-3.52,14.84-17.01,24.68-33.17,24.68s-29.77-9.84-33.28-24.68h16.22c2.81,7.12,9.45,11.54,17.06,11.54s14.13-4.42,16.94-11.54h16.23Z" class="i"></path>
      <path d="M1002.65,278.26h34c-2.81,7.12-9.43,11.54-16.94,11.54s-14.25-4.42-17.06-11.54Z" class="f g"></path>
      <g class="k">
        <path d="M1116.17 278.26v23.22h-15.45V278.3l1.04-.04h14.41zm78.97 2.75c-4.44 13.3-17.24 21.93-32.38 21.93-16.27 0-29.77-9.84-33.28-24.68h16.22c2.81 7.12 9.45 11.54 17.06 11.54s14.13-4.42 16.94-11.54h7.14c3.11 0 5.99 1.02 8.3 2.75z"></path>
      </g>
      <g class="g">
        <path d="M1145.7,278.26h34c-2.81,7.12-9.43,11.54-16.94,11.54s-14.25-4.42-17.06-11.54Z" class="f"></path>
        <path d="M1086.71 425.07l-3.04-.67c.19-.84 17.21-82.72-130.67-145.17l-12.55-4.9 1.93-2.55 11.06 4.32c33.41 12.95 137.08 48.11 188.64 8.59 23.28-17.85 33.2-48.79 29.63-92.19-83.45-40.45-105.64-84.4-102.89-109.44 1.66-15.1 12.05-25.24 26.52-25.84 27.38-1.13 61.34 31.26 75.49 106.17 1.8 9.54 3.09 18.62 3.85 27.23 32.71 15.63 74.83 30.77 128.58 44.08l-.78 2.96c-53-13.12-94.83-28.09-127.52-43.6 3.23 43.55-7.14 74.77-30.96 93.03-18.27 14-54.86 27.47-125.42 12.08-13.13-2.86-25.56-6.33-36.43-9.74 37.43 19.16 75.45 46.35 94.22 82.93 15.4 30 10.55 51.8 10.34 52.71zm7.07-364.67c-11.93 1.22-20.43 10.08-21.85 22.98-2.65 24.09 18.92 66.32 99.48 105.67-.77-7.96-1.99-16.32-3.64-25.08-13.81-73.12-46.26-104.76-72.3-103.69a23.57 23.57 0 0 0-1.69.12z"></path>
        <circle cx="1177.13" cy="141.73" r="24.08" class="f"></circle>
      </g>
    </g>
    <g class="n">
      <circle cx="706.32" cy="86.4" r="4.39"></circle>
      <circle cx="723.63" cy="86.4" r="4.39"></circle>
      <circle cx="740.94" cy="86.4" r="4.39"></circle>
    </g>
    <g class="g">
      <rect x="706.32" y="143.78" width="112.82" height="112.82" rx="13.87" class="f"></rect>
      <rect x="833.51" y="143.78" width="112.82" height="112.82" rx="13.87" class="f"></rect>
      <rect x="960.7" y="143.78" width="112.82" height="112.82" rx="13.87" class="f"></rect>
      <rect x="1087.89" y="143.78" width="112.82" height="112.82" rx="13.87" class="f"></rect>
      <rect x="706.32" y="278.26" width="112.82" height="112.82" rx="13.87" class="f"></rect>
      <rect x="833.51" y="278.26" width="112.82" height="112.82" rx="13.87" class="f"></rect>
      <rect x="960.7" y="278.26" width="112.82" height="112.82" rx="13.87" class="f"></rect>
      <rect x="1087.89" y="278.26" width="112.82" height="112.82" rx="13.87" class="f"></rect>
    </g>
  </g>
</svg>
